<?xml version="1.0" encoding="UTF-8" standalone="no"?>
<svg
   xmlns:dc="http://purl.org/dc/elements/1.1/"
   xmlns:cc="http://creativecommons.org/ns#"
   xmlns:rdf="http://www.w3.org/1999/02/22-rdf-syntax-ns#"
   xmlns:svg="http://www.w3.org/2000/svg"
   xmlns="http://www.w3.org/2000/svg"
   xmlns:sodipodi="http://sodipodi.sourceforge.net/DTD/sodipodi-0.dtd"
   xmlns:inkscape="http://www.inkscape.org/namespaces/inkscape"
   width="182.50667mm"
   height="65.401779mm"
   viewBox="0 0 182.50667 65.401779"
   version="1.1"
   id="svg848"
   sodipodi:docname="logo2.svg"
   inkscape:version="1.0 (4035a4fb49, 2020-05-01)">
  <defs
     id="defs842">
    <rect
       x="57.074406"
       y="146.46577"
       width="6.9925594"
       height="6.2366071"
       id="rect1426" />
  </defs>
  <sodipodi:namedview
     inkscape:guide-bbox="true"
     showguides="true"
     id="base"
     pagecolor="#ffffff"
     bordercolor="#666666"
     borderopacity="1.0"
     inkscape:pageopacity="0.0"
     inkscape:pageshadow="2"
     inkscape:zoom="1.4"
     inkscape:cx="308.78838"
     inkscape:cy="178.24033"
     inkscape:document-units="mm"
     inkscape:current-layer="layer1"
     inkscape:document-rotation="0"
     showgrid="false"
     inkscape:window-width="2560"
     inkscape:window-height="1378"
     inkscape:window-x="-8"
     inkscape:window-y="-8"
     inkscape:window-maximized="1"
     fit-margin-top="0"
     fit-margin-left="0"
     fit-margin-right="0"
     fit-margin-bottom="0" />
  <metadata
     id="metadata845">
    <rdf:RDF>
      <cc:Work
         rdf:about="">
        <dc:format>image/svg+xml</dc:format>
        <dc:type
           rdf:resource="http://purl.org/dc/dcmitype/StillImage" />
        <dc:title></dc:title>
      </cc:Work>
    </rdf:RDF>
  </metadata>
  <g
     inkscape:label="Слой 1"
     inkscape:groupmode="layer"
     id="layer1"
     transform="translate(-3.0919709,-102.12238)">
    <text
       xml:space="preserve"
       id="text1424"
       style="font-size:2.82222px;line-height:125%;font-family:Sans;letter-spacing:0px;word-spacing:0px;white-space:pre;shape-inside:url(#rect1426);fill:none;stroke:#000000;stroke-width:0.264583px;stroke-linecap:butt;stroke-linejoin:miter;stroke-opacity:1;"
       transform="matrix(2.3498296,0,0,2.3498296,-20.712793,-233.75455)" />
    <g
       transform="translate(-4.1577381,-8.5044642)"
       id="g1513">
      <text
         id="text1422"
         y="161.04128"
         x="110.75828"
         style="font-style:normal;font-variant:normal;font-weight:normal;font-stretch:normal;font-size:53.054px;line-height:125%;font-family:'Rockwell Extra Bold';-inkscape-font-specification:'Rockwell Extra Bold, ';letter-spacing:0px;word-spacing:0px;fill:#000000;fill-opacity:1;stroke:#000000;stroke-width:0.621725px;stroke-linecap:butt;stroke-linejoin:miter;stroke-opacity:1"
         xml:space="preserve"><tspan
           style="font-style:normal;font-variant:normal;font-weight:bold;font-stretch:normal;font-size:53.054px;font-family:'Clarendon BT';-inkscape-font-specification:'Clarendon BT Bold';fill:#000000;fill-opacity:1;stroke:#000000;stroke-width:0.621725px;stroke-opacity:1"
           y="161.04128"
           x="110.75828"
           id="tspan1420"
           sodipodi:role="line"><tspan
   id="tspan1430"
   style="font-size:59.6857px;fill:#000000;fill-opacity:1;stroke:#000000;stroke-width:0.621725px;stroke-opacity:1">3</tspan>D</tspan></text>
      <g
         id="g1475"
         transform="translate(-4.91369,-140.98512)">
        <path
           id="path3-0"
           style="fill-rule:nonzero;stroke-width:0.624861"
           d="m 85.498231,251.61196 c -0.327422,0 -0.631044,0.16933 -0.802248,0.44739 l -1.699729,2.74634 c -0.267445,0.0218 -0.53489,0.0479 -0.800457,0.0771 l -2.201918,-2.36094 c -0.223079,-0.23869 -0.553562,-0.3452 -0.874116,-0.2821 -0.321807,0.0643 -0.587287,0.28909 -0.701626,0.59653 l -1.127461,3.01673 c -0.261204,0.075 -0.519921,0.1542 -0.777997,0.23539 l -2.614281,-1.88121 c -0.265567,-0.19183 -0.612113,-0.23223 -0.914535,-0.10601 -0.301814,0.12501 -0.518878,0.39807 -0.571362,0.72051 l -0.518375,3.18113 c -0.23996,0.12431 -0.477364,0.25302 -0.714195,0.38362 l -2.933202,-1.33768 c -0.298059,-0.13629 -0.64516,-0.108 -0.916343,0.0746 -0.272433,0.1812 -0.432042,0.49162 -0.419543,0.81842 l 0.112305,3.22785 c -0.208702,0.16689 -0.415545,0.33782 -0.619884,0.51029 l -3.143416,-0.74116 c -0.319303,-0.0744 -0.6546,0.0204 -0.885798,0.25153 -0.232449,0.23183 -0.326518,0.56651 -0.251538,0.88581 l 0.740254,3.14431 c -0.17176,0.20372 -0.341643,0.41029 -0.508482,0.61898 L 59.12643,265.7262 c -0.325544,-0.008 -0.636589,0.14708 -0.818415,0.41956 -0.182469,0.27117 -0.210111,0.61856 -0.07458,0.91724 l 1.336789,2.93409 c -0.130036,0.23557 -0.258369,0.47301 -0.382704,0.71421 l -3.180255,0.51745 c -0.323059,0.0525 -0.595789,0.26804 -0.721392,0.57048 -0.124995,0.30307 -0.08448,0.64899 0.106042,0.91455 l 1.88119,2.61336 c -0.08188,0.25806 -0.160288,0.5168 -0.235371,0.77799 l -3.01764,1.12837 c -0.306194,0.11439 -0.530995,0.37892 -0.594728,0.70073 -0.0638,0.32118 0.04277,0.65222 0.282102,0.87592 l 2.360031,2.20014 c -0.02938,0.26556 -0.0558,0.53361 -0.07823,0.80043 l -2.745431,1.69973 c -0.278068,0.17175 -0.447393,0.4751 -0.447393,0.80315 0,0.32807 0.169325,0.63191 0.447393,0.80314 l 2.745431,1.69972 c 0.02243,0.26745 0.04885,0.53399 0.07823,0.79955 l -2.360031,2.20103 c -0.239317,0.22308 -0.34585,0.55446 -0.282102,0.87501 0.06381,0.32181 0.288534,0.58667 0.594728,0.70163 l 3.01764,1.12747 c 0.07493,0.26118 0.153506,0.52083 0.235371,0.77888 l -1.88119,2.61338 c -0.191196,0.2662 -0.231615,0.61184 -0.106042,0.91364 0.125691,0.30307 0.398333,0.51952 0.721392,0.57137 l 3.180255,0.51748 c 0.1243,0.24117 0.251485,0.47827 0.382704,0.71509 l -1.336789,2.9323 c -0.136296,0.29806 -0.107954,0.64478 0.07458,0.91724 0.182469,0.27304 0.492871,0.43267 0.818415,0.41953 l 3.226967,-0.11317 c 0.168108,0.20996 0.336897,0.41554 0.509369,0.61989 l -0.740254,3.14519 c -0.07493,0.31869 0.01913,0.65129 0.251538,0.88311 0.230572,0.23308 0.566495,0.32652 0.885798,0.25154 l 3.143416,-0.74025 c 0.204323,0.17367 0.411182,0.34227 0.619884,0.50847 l -0.112305,3.22876 c -0.01217,0.3268 0.147074,0.63687 0.419543,0.81932 0.271183,0.18185 0.618284,0.2091 0.916343,0.0729 l 2.933202,-1.33679 c 0.236205,0.13126 0.473626,0.25926 0.714195,0.3836 l 0.518375,3.17846 c 0.0525,0.32366 0.268922,0.59796 0.571362,0.7223 0.301797,0.12568 0.648968,0.0845 0.914535,-0.10601 l 2.612491,-1.88209 c 0.258074,0.082 0.517679,0.16133 0.778883,0.23628 l 1.127461,3.01584 c 0.114391,0.30619 0.37982,0.53313 0.701626,0.59561 0.321181,0.065 0.651941,-0.0429 0.87502,-0.28299 l 2.201014,-2.36002 c 0.265567,0.0306 0.533012,0.0563 0.800457,0.08 l 1.699729,2.74634 c 0.171239,0.27681 0.47573,0.44739 0.803152,0.44739 0.327421,0 0.631305,-0.17003 0.803134,-0.44739 l 1.699728,-2.74634 c 0.267445,-0.0237 0.533986,-0.0494 0.799554,-0.08 l 2.201032,2.36002 c 0.223061,0.23994 0.554447,0.34797 0.875001,0.28299 0.321807,-0.0631 0.586384,-0.28942 0.70074,-0.59561 l 1.128348,-3.01584 c 0.261205,-0.075 0.519923,-0.15438 0.777997,-0.23628 l 2.61428,1.88209 c 0.265568,0.19058 0.611835,0.23168 0.913649,0.10601 0.302423,-0.12431 0.517974,-0.39926 0.570458,-0.7223 l 0.519258,-3.17846 c 0.23995,-0.12429 0.47741,-0.25424 0.714222,-0.3836 l 2.933198,1.33679 c 0.29806,0.1363 0.64453,0.10889 0.91634,-0.0729 0.27245,-0.18245 0.4314,-0.49189 0.41953,-0.81932 l -0.11231,-3.22876 c 0.20873,-0.16688 0.41529,-0.33477 0.61899,-0.50847 l 3.14342,0.74025 c 0.31929,0.0749 0.65431,-0.0185 0.88488,-0.25154 0.23245,-0.23182 0.32655,-0.56442 0.25157,-0.88311 l -0.74029,-3.14519 c 0.17247,-0.20435 0.34228,-0.40993 0.50849,-0.61989 l 3.22788,0.11317 c 0.32555,0.0121 0.63748,-0.14637 0.81932,-0.41953 0.18245,-0.27246 0.21052,-0.61918 0.0737,-0.91724 l -1.33679,-2.9323 c 0.13056,-0.23682 0.25897,-0.47392 0.3827,-0.71509 l 3.18025,-0.51748 c 0.32368,-0.0518 0.59642,-0.2683 0.72139,-0.57137 0.125,-0.3018 0.0849,-0.64744 -0.10689,-0.91364 l -1.8812,-2.61338 c 0.0811,-0.25805 0.16063,-0.5177 0.23627,-0.77888 l 3.01585,-1.12747 c 0.3068,-0.1149 0.53314,-0.37982 0.59563,-0.70163 0.065,-0.32119 -0.042,-0.65193 -0.2821,-0.87501 l -2.36003,-2.20103 c 0.0286,-0.26556 0.0552,-0.53273 0.0783,-0.79955 l 2.74634,-1.69972 c 0.27806,-0.17124 0.44739,-0.47571 0.44739,-0.80314 0,-0.32742 -0.1695,-0.63131 -0.44739,-0.80315 l -2.74543,-1.69973 c -0.0231,-0.26745 -0.0495,-0.53487 -0.0783,-0.80043 l 2.35912,-2.20014 c 0.23994,-0.2237 0.34796,-0.55537 0.28299,-0.87592 -0.0631,-0.32181 -0.28881,-0.58638 -0.59562,-0.70073 l -3.01584,-1.12837 c -0.0756,-0.26119 -0.1549,-0.51993 -0.23628,-0.77799 l 1.88121,-2.61336 c 0.19184,-0.26556 0.23098,-0.61148 0.106,-0.91455 -0.12499,-0.30181 -0.39746,-0.51736 -0.72051,-0.57048 l -3.18115,-0.51738 c -0.12379,-0.24119 -0.25184,-0.47862 -0.3818,-0.71421 l 1.33588,-2.93409 c 0.13681,-0.29869 0.10866,-0.64605 -0.0737,-0.91725 -0.18185,-0.27243 -0.48974,-0.43204 -0.81842,-0.41953 l -3.22787,0.11316 c -0.16688,-0.20869 -0.33717,-0.41588 -0.51027,-0.61898 l 0.74206,-3.1443 c 0.0749,-0.31931 -0.0189,-0.65397 -0.25156,-0.88579 -0.23056,-0.2312 -0.56559,-0.32653 -0.88489,-0.25155 l -3.1443,0.74117 c -0.20373,-0.17246 -0.41056,-0.34346 -0.61989,-0.5103 l 0.11318,-3.22785 c 0.0121,-0.32681 -0.1462,-0.63721 -0.41865,-0.81842 -0.27307,-0.18246 -0.61918,-0.21011 -0.91723,-0.0746 l -2.933208,1.33767 c -0.236832,-0.13002 -0.474272,-0.25924 -0.714222,-0.38359 l -0.518353,-3.18116 c -0.0525,-0.32243 -0.268922,-0.59552 -0.571362,-0.7205 -0.301797,-0.12551 -0.647178,-0.0852 -0.912745,0.106 l -2.615167,1.88122 c -0.257431,-0.082 -0.51681,-0.16047 -0.777997,-0.2354 l -1.127462,-3.01674 c -0.11439,-0.30742 -0.378933,-0.53278 -0.700738,-0.5965 -0.321164,-0.0631 -0.651959,0.0435 -0.875021,0.28207 l -2.201013,2.36094 c -0.265568,-0.0294 -0.532735,-0.0553 -0.799554,-0.0771 l -1.699729,-2.74634 c -0.17176,-0.27807 -0.476599,-0.44739 -0.804038,-0.44739 z m -0.05928,5.78373 c 0.496837,0.0121 0.98929,0.21299 1.360138,0.601 0.740462,0.77798 0.712891,2.00825 -0.0638,2.74995 -0.77485,0.74234 -2.003734,0.71362 -2.745448,-0.0638 -0.739837,-0.7767 -0.712265,-2.00759 0.0638,-2.74994 0.387416,-0.37116 0.888458,-0.54878 1.385294,-0.53721 z m 4.463119,3.20093 c 7.011579,1.30533 12.94727,5.67015 16.3684,11.6582 l -2.29086,5.17374 c -0.39554,0.89544 0.008,1.94258 0.90106,2.33937 l 4.41103,1.95935 c 0.33043,11.6026 -4.36092,16.09453 -6.7423,19.13268 l -4.109173,-0.8831 c -0.956657,-0.20496 -1.897235,0.4043 -2.102199,1.36284 l -0.974739,4.54848 c -3.008094,1.36531 -6.34886,2.12374 -9.866846,2.12374 -3.598581,0 -7.01165,-0.79555 -10.07348,-2.21899 l -0.973835,-4.54936 c -0.204947,-0.95728 -1.146167,-1.5666 -2.102199,-1.36103 l -4.015743,0.86245 c -6.664027,-5.84553 -7.495464,-15.86203 -6.60843,-19.21086 l 4.183728,-1.85963 c 0.893552,-0.39678 1.296963,-1.44395 0.900176,-2.33938 l -2.031392,-4.98433 c 3.892016,-8.44381 9.270503,-10.9252 16.286794,-11.74879 l 2.990693,3.13803 c 0.676105,0.70796 1.795553,0.73416 2.50288,0.0576 z M 62.191688,274.976 c 0.756753,-0.0139 1.483151,0.41997 1.80934,1.1571 0.434892,0.98165 -0.007,2.13238 -0.987326,2.56666 -0.980387,0.43554 -2.128137,-0.006 -2.563047,-0.99002 -0.434895,-0.98227 0.007,-2.1311 0.988209,-2.56665 0.245246,-0.10866 0.500591,-0.16271 0.752824,-0.16706 z m 46.403752,0.0952 c 0.25223,0.005 0.50774,0.0582 0.75286,0.16707 0.9804,0.4349 1.42311,1.58501 0.9882,2.56667 -0.43426,0.98228 -1.58202,1.42465 -2.56306,0.9891 -0.97916,-0.43489 -1.42158,-1.58374 -0.98731,-2.56666 0.32573,-0.73623 1.0527,-1.16932 1.80931,-1.1562 z m -37.605958,27.27377 c 0.903218,-0.008 1.718504,0.61892 1.91535,1.53802 0.224331,1.04978 -0.442526,2.08387 -1.490419,2.30883 -1.048517,0.2262 -2.081441,-0.44182 -2.307024,-1.49221 -0.224332,-1.05228 0.442785,-2.0853 1.491304,-2.31151 0.13108,-0.028 0.26176,-0.0421 0.390789,-0.0431 z m 28.808208,0.0944 c 0.128992,10e-4 0.25979,0.0157 0.39079,0.044 1.04852,0.2243 1.71626,1.25906 1.4913,2.30882 -0.22494,1.04977 -1.25824,1.71922 -2.30614,1.4949 -1.04852,-0.22619 -1.715342,-1.25989 -1.490402,-2.31152 0.196289,-0.91908 1.011646,-1.54543 1.914452,-1.53623 z"
           sodipodi:nodetypes="scccccccccccccccccccccccccccccccccccccccscccccccccccccccccccccccccccccccccccccccscccccccccccccccccccccccccccccccccccccccscccccccccccccccccccccccccccccccccccccccssccccscccccccccsccccccccccccsccccssccccssccccsscsccsc" />
        <text
           id="text1422-9"
           y="300.9075"
           x="64.116867"
           style="font-style:normal;font-variant:normal;font-weight:normal;font-stretch:normal;font-size:53.054px;line-height:125%;font-family:'Rockwell Extra Bold';-inkscape-font-specification:'Rockwell Extra Bold, ';letter-spacing:0px;word-spacing:0px;fill:#000000;fill-opacity:1;stroke:#000000;stroke-width:0.621726px;stroke-linecap:butt;stroke-linejoin:miter;stroke-opacity:1"
           xml:space="preserve"><tspan
             style="font-style:normal;font-variant:normal;font-weight:bold;font-stretch:normal;font-size:53.054px;font-family:'Clarendon BT';-inkscape-font-specification:'Clarendon BT Bold';fill:#000000;fill-opacity:1;stroke:#000000;stroke-width:0.621726px;stroke-opacity:1"
             y="300.9075"
             x="64.116867"
             id="tspan1420-0"
             sodipodi:role="line">G</tspan></text>
      </g>
      <text
         xml:space="preserve"
         style="font-style:normal;font-variant:normal;font-weight:normal;font-stretch:normal;font-size:53.054px;line-height:125%;font-family:'Rockwell Extra Bold';-inkscape-font-specification:'Rockwell Extra Bold, ';letter-spacing:0px;word-spacing:0px;fill:#000000;fill-opacity:1;stroke:#000000;stroke-width:0.621725px;stroke-linecap:butt;stroke-linejoin:miter;stroke-opacity:1"
         x="6.5502658"
         y="161.04128"
         id="text1502"><tspan
           sodipodi:role="line"
           id="tspan1500"
           x="6.5502658"
           y="161.04128"
           style="font-style:normal;font-variant:normal;font-weight:bold;font-stretch:normal;font-size:53.054px;font-family:'Clarendon BT';-inkscape-font-specification:'Clarendon BT Bold';fill:#000000;fill-opacity:1;stroke:#000000;stroke-width:0.621725px;stroke-opacity:1">R</tspan></text>
    </g>
  </g>
</svg>
