<?xml version="1.0" encoding="UTF-8" standalone="no"?>
<svg
   version="1.0"
   width="306.000000pt"
   height="306.000000pt"
   viewBox="0 0 306.000000 306.000000"
   preserveAspectRatio="xMidYMid meet"
   id="svg8"
   sodipodi:docname="rusty-editor-icon.svg"
   inkscape:version="1.1 (c68e22c387, 2021-05-23)"
   xmlns:inkscape="http://www.inkscape.org/namespaces/inkscape"
   xmlns:sodipodi="http://sodipodi.sourceforge.net/DTD/sodipodi-0.dtd"
   xmlns="http://www.w3.org/2000/svg"
   xmlns:svg="http://www.w3.org/2000/svg">
  <defs
     id="defs12" />
  <sodipodi:namedview
     id="namedview10"
     pagecolor="#ffffff"
     bordercolor="#666666"
     borderopacity="1.0"
     inkscape:pageshadow="2"
     inkscape:pageopacity="0.0"
     inkscape:pagecheckerboard="0"
     inkscape:document-units="pt"
     showgrid="false"
     inkscape:zoom="2"
     inkscape:cx="203.75"
     inkscape:cy="202.5"
     inkscape:window-width="1920"
     inkscape:window-height="1009"
     inkscape:window-x="0"
     inkscape:window-y="34"
     inkscape:window-maximized="1"
     inkscape:current-layer="svg8" />
  <metadata
     id="metadata2">
Created by potrace 1.16, written by Peter Selinger 2001-2019
</metadata>
  <g
     transform="translate(0.000000,306.000000) scale(0.100000,-0.100000)"
     fill="#000000"
     stroke="none"
     id="g6">
    <path
       d="M1462 2985 c-33 -52 -53 -75 -67 -75 -12 0 -46 25 -80 60 -33 33 -67 60 -77 60 -22 0 -40 -28 -68 -107 -14 -39 -29 -65 -41 -68 -12 -4 -42 11 -89 43 -46 33 -77 48 -90 45 -21 -5 -35 -41 -45 -113 -14 -98 -20 -100 -120 -54 -113 52 -133 37 -122 -96 8 -92 2 -96 -105 -74 -46 10 -92 15 -101 11 -21 -8 -22 -38 -1 -128 21 -92 15 -100 -76 -92 -133 11 -148 -8 -96 -123 45 -95 40 -109 -41 -118 -82 -10 -120 -24 -126 -46 -3 -13 12 -44 45 -90 32 -47 47 -77 43 -89 -3 -12 -29 -27 -68 -41 -79 -28 -107 -46 -107 -68 0 -10 27 -44 60 -77 35 -34 60 -68 60 -80 0 -14 -23 -34 -75 -67 -54 -34 -75 -53 -75 -68 0 -15 21 -34 75 -68 52 -33 75 -53 75 -67 0 -12 -25 -46 -60 -80 -33 -33 -60 -67 -60 -77 0 -22 28 -40 107 -68 39 -14 65 -29 68 -41 4 -12 -11 -42 -43 -89 -33 -46 -48 -77 -45 -90 5 -21 41 -35 113 -45 98 -14 100 -20 54 -120 -52 -113 -37 -133 96 -122 91 8 97 0 76 -92 -23 -99 -21 -119 9 -127 13 -3 59 1 100 11 99 22 106 17 98 -75 -11 -133 8 -148 123 -96 96 45 109 40 118 -44 9 -80 23 -117 46 -123 13 -3 45 12 90 45 47 32 77 47 89 43 12 -3 27 -29 41 -68 28 -79 46 -107 68 -107 10 0 44 27 77 60 34 35 68 60 80 60 14 0 34 -23 67 -75 65 -103 79 -101 149 18 24 40 40 57 54 57 12 0 46 -26 80 -60 33 -33 67 -60 77 -60 22 0 40 28 68 107 14 39 29 65 41 68 12 4 42 -11 89 -43 46 -33 77 -48 90 -45 22 6 36 44 46 120 4 29 14 59 24 68 15 14 24 12 94 -20 115 -53 134 -38 123 95 -8 92 -3 96 107 73 81 -17 87 -17 103 0 17 16 17 22 0 103 -23 110 -19 115 73 107 133 -11 148 9 96 122 -46 100 -44 106 54 120 72 10 108 24 113 45 3 13 -12 44 -45 90 -32 47 -47 77 -43 89 3 12 29 27 68 41 79 28 107 46 107 68 0 10 -27 44 -60 77 -34 34 -60 68 -60 80 0 14 19 32 66 60 110 66 110 84 0 150 -47 28 -66 46 -66 60 0 12 26 46 60 80 33 33 60 67 60 77 0 22 -28 40 -107 68 -39 14 -65 29 -68 41 -4 12 11 42 43 89 33 45 48 77 45 90 -6 23 -43 37 -123 46 -84 9 -89 22 -44 118 52 115 37 134 -96 123 -91 -8 -97 0 -76 92 21 90 20 120 -1 128 -9 4 -55 -1 -101 -11 -107 -22 -113 -18 -105 74 11 133 -8 148 -123 95 -70 -32 -79 -34 -94 -20 -10 9 -20 39 -24 68 -10 76 -24 114 -46 120 -13 3 -44 -12 -90 -45 -47 -32 -77 -47 -89 -43 -12 3 -27 29 -41 68 -28 79 -46 107 -68 107 -10 0 -44 -27 -77 -60 -34 -34 -68 -60 -80 -60 -14 0 -30 17 -54 58 -70 118 -84 120 -149 17z m102 -206 c32 -15 56 -65 49 -102 -12 -63 -102 -89 -148 -42 -39 38 -37 88 6 128 32 29 54 33 93 16z m-165 -221 l74 -78 -64 0 c-104 0 -240 -33 -342 -84 -113 -55 -204 -129 -279 -227 -53 -68 -138 -229 -138 -260 0 -26 -19 7 -54 95 l-36 89 38 69 c116 216 272 355 474 422 72 24 221 56 243 53 6 -1 43 -37 84 -79z m486 40 c88 -29 216 -91 265 -128 l25 -20 -102 0 c-95 0 -102 -1 -109 -22 -3 -12 -13 -36 -20 -54 l-14 -33 -82 44 c-80 42 -208 85 -255 85 -13 0 -23 2 -23 4 0 2 37 40 82 84 94 92 81 90 233 40z m394 -230 c71 -66 153 -161 189 -221 l33 -54 -56 -126 c-30 -69 -55 -138 -55 -154 0 -41 24 -60 143 -114 l102 -46 3 -90 c7 -232 -65 -473 -196 -658 -87 -123 -114 -149 -145 -141 l-27 6 0 299 c0 351 -8 328 115 333 l80 3 3 123 3 122 -471 0 -471 0 3 -122 3 -123 108 -5 c81 -4 110 -9 117 -20 5 -8 10 -76 10 -150 0 -220 -26 -251 -211 -258 -100 -4 -111 -2 -168 23 -72 33 -113 76 -152 160 -50 108 -64 205 -64 445 0 169 4 229 17 281 39 152 107 248 209 293 57 26 69 28 168 24 91 -3 114 -7 162 -31 121 -59 189 -175 224 -379 l6 -38 129 0 130 0 0 330 c0 182 3 330 6 330 4 0 28 -19 53 -42z m-1771 -434 c40 -45 25 -115 -30 -138 -77 -33 -149 38 -117 115 14 36 62 61 99 53 14 -2 35 -16 48 -30z m2164 -4 c26 -27 30 -36 25 -67 -8 -47 -33 -72 -80 -80 -31 -5 -40 -1 -67 25 -40 40 -41 88 -4 126 38 37 86 36 126 -4z m-2067 -367 c0 -155 3 -190 24 -268 95 -364 364 -579 752 -602 178 -10 369 31 518 113 35 19 65 34 66 32 1 -2 17 -32 34 -66 l32 -64 -17 -81 c-9 -45 -21 -89 -25 -98 -4 -8 -43 -27 -86 -42 -134 -46 -217 -60 -368 -60 -156 -1 -254 15 -392 65 l-82 29 -16 72 c-8 40 -20 94 -26 120 -13 58 -42 87 -84 87 -17 0 -71 -9 -121 -20 l-89 -20 -48 51 c-106 113 -190 271 -234 437 -28 108 -45 363 -25 398 8 14 156 90 182 93 3 1 5 -79 5 -176z m313 -909 c51 -58 12 -144 -67 -144 -32 0 -44 6 -65 31 -14 17 -26 39 -26 49 0 35 24 73 55 86 39 17 74 10 103 -22z m1343 -3 c33 -33 36 -58 14 -102 -16 -30 -49 -49 -86 -49 -35 0 -79 53 -79 95 0 80 92 114 151 56z"
       id="path4" />
  </g>
  <path
     style="fill:#ffffff;stroke:#000000;stroke-width:1.88976"
     d="m 190.81797,350.49786 c -13.0459,-0.90938 -23.57856,-3.24763 -39.28848,-8.72204 -5.20878,-1.8151 -9.5593,-3.38896 -9.66782,-3.49748 -0.10852,-0.10852 -1.61417,-6.60539 -3.34588,-14.43748 -3.4538,-15.62061 -4.51955,-18.42912 -7.93206,-20.90286 -1.05395,-0.76401 -2.85395,-1.52737 -4,-1.69636 -2.63891,-0.38912 -10.17353,0.74201 -21.2398,3.18862 l -8.656058,1.91375 -5.301419,-5.79701 C 81.874441,290.14579 76.189465,281.83163 69.787028,268.95828 62.697969,254.70435 58.641222,241.65821 56.817682,227.25 c -2.006946,-15.85733 -2.56297,-34.0793 -1.152535,-37.77073 0.578542,-1.51417 6.11942,-4.86939 15.206633,-9.20821 8.463237,-4.0409 8.672975,-4.10249 9.05941,-2.66008 0.167835,0.62646 0.312523,7.66402 0.321529,15.63902 0.031,27.45247 0.946194,35.44182 5.727581,50 10.084569,30.70508 30.09055,52.68062 58.2697,64.00623 15.43037,6.2017 33.50261,9.21324 51.5,8.58192 21.66061,-0.75983 39.40081,-5.50686 59.10104,-15.81462 l 6.79539,-3.55555 2.49208,4.64101 c 4.28732,7.98427 6.11149,11.82974 6.11149,12.88342 0,1.49551 -3.42148,17.14801 -4.5399,20.76906 l -0.96119,3.11197 -3.62446,1.76483 c -9.54229,4.64636 -25.49714,8.99406 -37.91219,10.33106 -6.83857,0.73646 -25.12997,1.03489 -32.39429,0.52853 z"
     id="path88"
     transform="scale(0.75)" />
  <path
     style="fill:#ffffff;stroke:#000000;stroke-width:1.88976"
     d="m 304.375,305.44061 -1.625,-0.4692 0.0177,-31.86071 c 0.0194,-35.04038 0.37475,-43.8429 1.90998,-47.31354 1.6476,-3.72468 2.32447,-3.94338 13.85674,-4.4771 l 10.13829,-0.4692 0.27122,-4.05043 c 0.14918,-2.22774 0.3935,-9.61918 0.54294,-16.42543 L 329.75853,188 h -63.05784 -63.05785 l 0.36271,16.375 c 0.19949,9.00625 0.39236,16.40059 0.42858,16.43186 0.0362,0.0313 5.12837,0.31989 11.31587,0.64136 12.74419,0.66213 17.0797,1.2586 18.20764,2.50497 1.90921,2.10965 2.33967,30.32757 0.59295,38.86933 -1.94409,9.50692 -6.60526,13.30929 -17.93753,14.63263 -6.96922,0.81383 -17.94484,1.13526 -21.40688,0.62691 -6.53403,-0.95943 -14.63866,-4.98922 -19.98027,-9.93461 C 167.11859,260.64151 160.72557,245.71754 158.4562,229 c -2.13107,-15.69871 -1.9924,-58.71869 0.22321,-69.25 3.12777,-14.86698 10.53041,-28.67633 19.14921,-35.72212 3.6348,-2.97142 11.77595,-7.13548 16.15143,-8.26119 5.20664,-1.33954 24.2869,-0.6954 30.25277,1.02131 5.49708,1.58183 12.39377,5.65785 17.03698,10.06906 10.25522,9.74281 15.87585,22.93225 19.71689,46.26794 L 261.29531,175 H 278.77265 296.25 l 0.0628,-36.875 c 0.0345,-20.28125 0.2033,-40.119417 0.375,-44.084814 L 297,86.830372 l 3.07504,2.561464 c 10.25626,8.543322 23.29135,23.599764 30.08773,34.753444 l 2.98289,4.89528 -3.74703,8.35472 c -4.92663,10.98483 -9.36112,22.10083 -10.37027,25.99525 -0.63935,2.46735 -0.69735,3.55347 -0.27375,5.1266 1.17368,4.35871 4.79416,6.78432 21.41466,14.34716 5.6819,2.58544 10.50795,4.87463 10.72456,5.08709 0.77796,0.76304 0.51431,25.43866 -0.34382,32.18013 -3.49264,27.43792 -12.6859,50.20059 -29.40701,72.81228 -9.02915,12.20998 -11.46755,14.02727 -16.768,12.49682 z"
     id="path127"
     transform="scale(0.75)" />
  <path
     style="fill:#ffffff;stroke:#000000;stroke-width:1.88976"
     d="M 84.139699,150.75 C 82.192445,146.87489 75.25,129.87294 75.25,128.97925 75.25,127.96365 83.289669,113.90131 87.530038,107.5 101.4892,86.427073 119.78553,71.832484 141.73345,64.263097 149.51001,61.58112 163.7629,58.165842 173.19968,56.723153 L 175.39936,56.386868 185.44968,66.5649 195.5,76.742932 187.45714,77.079864 C 152.08486,78.561682 120.14193,95.640376 101.85188,122.84981 95.833063,131.80378 89.40232,144.00037 87.009481,151 l -1.11102,3.25 z"
     id="path166"
     transform="scale(0.75)" />
  <path
     style="fill:#ffffff;stroke:#000000;stroke-width:1.88976"
     d="M 250.25,91.712962 C 238.47414,85.295368 221.72861,79.28071 213.875,78.647796 c -2.36727,-0.190775 -3.625,-0.504553 -3.625,-0.904359 0,-0.970145 17.16711,-17.506196 19.73906,-19.013462 2.07236,-1.214482 2.67883,-1.333329 5.66586,-1.110316 10.06754,0.751649 41.17182,13.918773 51.5586,21.825891 L 288.92705,80.75 276.68481,81 c -9.73358,0.19877 -12.4737,0.403706 -13.37181,1.000088 -0.72659,0.482489 -1.8039,2.537185 -3.01973,5.759371 -1.03959,2.755105 -2.20586,5.599419 -2.59172,6.320697 L 257,95.39157 Z"
     id="path205"
     transform="scale(0.75)" />
  <path
     style="fill:#ffffff;stroke:#000000;stroke-width:1.88976"
     d="m 304.29573,304.03884 c -0.60001,-0.37984 -0.6521,-5.39395 -0.35184,-33.86734 0.19384,-18.38183 0.56945,-35.54238 0.83468,-38.13457 0.523,-5.11142 1.48537,-7.40659 3.51767,-8.38938 0.69334,-0.33528 5.66847,-0.85013 11.21909,-1.16098 5.48532,-0.3072 10.05773,-0.64297 10.16091,-0.74615 0.33965,-0.33965 1.02083,-17.32146 1.04755,-26.11542 L 330.75,187 h -64.18021 -64.1802 l 0.21649,8.375 c 0.31718,12.26983 0.93825,26.09026 1.18195,26.3012 0.11659,0.10091 5.72447,0.5561 12.46197,1.01154 12.15742,0.82181 15.67933,1.29159 16.60227,2.21453 1.0378,1.0378 1.47339,8.84602 1.24669,22.34773 -0.17149,10.21332 -0.43271,14.67619 -0.96576,16.5 -3.03295,10.37703 -8.66306,12.90463 -28.8832,12.96689 -10.44376,0.0322 -10.85406,-0.005 -14.40293,-1.3015 -12.7815,-4.66976 -21.00974,-14.06609 -26.34917,-30.08973 -3.86074,-11.58609 -4.75324,-19.34231 -5.10052,-44.32566 -0.32686,-23.51444 0.27827,-35.867 2.13213,-43.52324 2.96476,-12.2441 9.1937,-24.01556 16.29856,-30.80107 3.67092,-3.50591 10.11985,-7.22111 15.93508,-9.18012 2.77191,-0.93379 4.28942,-1.06818 11.95587,-1.05883 15.02424,0.0183 20.38719,1.11494 28.21812,5.77004 4.20315,2.49857 9.6237,7.42714 12.8372,11.67209 6.40367,8.45905 10.83567,21.02622 14.19341,40.24613 l 0.32756,1.875 h 18.39557 18.39558 l 0.33177,-26.33227 c 0.18247,-14.48274 0.3542,-33.43899 0.38161,-42.12499 0.0274,-8.686009 0.20454,-16.347764 0.39362,-17.026127 0.32125,-1.152543 0.86845,-0.710108 8.34845,6.75 8.98633,8.962437 14.81342,15.985047 21.03466,25.350267 l 4.22946,6.36687 -3.56078,8.02696 c -7.09984,16.00492 -11.00601,26.55493 -10.98427,29.66696 0.017,2.43432 1.63685,5.44296 4.03625,7.49676 2.3071,1.97479 10.21586,6.12859 21.52558,11.30556 8.00817,3.6657 7.43496,2.64422 7.41152,13.20751 -0.0587,26.46008 -4.31447,46.57173 -14.19085,67.0625 -6.7885,14.08428 -18.12425,30.99511 -24.59455,36.6905 -1.93654,1.7046 -2.69378,2.05818 -4.39433,2.05184 -1.13003,-0.004 -2.37152,-0.20829 -2.75887,-0.4535 z"
     id="path244"
     transform="scale(0.75)" />
  <path
     style="fill:#ffffff;stroke:#000000;stroke-width:1.88976"
     d="m 344.95175,169.91351 c -2.3332,-0.6063 -5.97746,-4.1054 -7.48512,-7.18695 -1.10386,-2.2562 -1.29923,-3.22378 -1.11049,-5.49975 0.6155,-7.42208 9.04638,-12.4206 15.59915,-9.24846 2.72825,1.32073 7.08854,5.94472 7.5388,7.99474 0.46778,2.12977 -1.03595,7.47057 -2.68235,9.52691 -2.56961,3.20942 -8.29481,5.33997 -11.85999,4.41351 z"
     id="path283"
     transform="scale(0.75)" />
  <path
     style="fill:#ffffff;stroke:#000000;stroke-width:1.88976"
     d="m 199.5,58.896724 c -3.60676,-1.260752 -6.79751,-5.078769 -7.51229,-8.989135 -0.97168,-5.315814 5.06468,-12.747132 10.80215,-13.29843 3.47272,-0.333684 7.34817,1.609205 9.40557,4.715314 2.10209,3.17358 2.70165,5.303814 2.45448,8.720835 -0.16753,2.316134 -0.52931,3.338506 -1.70633,4.822015 -3.0184,3.804371 -8.97759,5.590499 -13.44358,4.029401 z"
     id="path322"
     transform="scale(0.75)" />
  <path
     style="fill:#ffffff;stroke:#000000;stroke-width:1.88976"
     d="m 55.867797,169.0105 c -2.625725,-0.6228 -5.456581,-2.80765 -6.963352,-5.3743 -2.771739,-4.72142 -1.382199,-11.51615 3.005008,-14.69423 4.951419,-3.58679 9.919642,-3.50889 14.158144,0.22199 2.874984,2.53066 4.157006,5.23618 4.171422,8.80318 0.02058,5.09295 -3.173414,9.29615 -8.20477,10.79722 -2.676137,0.79841 -3.670696,0.8381 -6.166452,0.24614 z"
     id="path361"
     transform="scale(0.75)" />
  <path
     style="fill:#ffffff;stroke:#000000;stroke-width:1.88976"
     d="m 111.04809,339.42697 c -1.99974,-0.29856 -2.88586,-0.79349 -4.80496,-2.68374 -2.7678,-2.72618 -4.4975,-5.92844 -4.48215,-8.298 0.0247,-3.80744 3.27225,-8.42414 7.21859,-10.26179 5.93495,-2.76368 12.06283,-0.29795 15.07678,6.06656 1.9371,4.09057 1.36516,7.9504 -1.67705,11.31776 -3.00042,3.32111 -6.63785,4.55995 -11.33121,3.85921 z"
     id="path400"
     transform="scale(0.75)" />
  <path
     style="fill:#ffffff;stroke:#000000;stroke-width:1.88976"
     d="m 288.09115,339.50674 c -2.42116,-1.53546 -4.87252,-4.82178 -5.88493,-7.88939 -0.93212,-2.82437 -0.34365,-6.83533 1.35857,-9.25988 4.94477,-7.04303 15.25233,-5.83003 20.26178,2.38443 2.86713,4.70149 -1.23895,13.35649 -7.31946,15.42833 -3.60239,1.22746 -5.69429,1.06254 -8.41596,-0.66349 z"
     id="path439"
     transform="scale(0.75)" />
</svg>
